<?xml version="1.0" standalone="no"?>
<!DOCTYPE svg PUBLIC "-//W3C//DTD SVG 20010904//EN"
 "http://www.w3.org/TR/2001/REC-SVG-20010904/DTD/svg10.dtd">
<svg version="1.0" xmlns="http://www.w3.org/2000/svg"
 width="700.000000pt" height="700.000000pt" viewBox="0 0 700.000000 700.000000"
 preserveAspectRatio="xMidYMid meet">
<metadata>
Created by potrace 1.14, written by Peter Selinger 2001-2017
</metadata>
<g transform="translate(0.000000,700.000000) scale(0.100000,-0.100000)"
fill="#000000" stroke="none">
<path d="M3420 6699 c-87 -14 -101 -18 -177 -55 -58 -27 -96 -56 -153 -113
l-77 -77 -498 -994 c-274 -547 -810 -1618 -1191 -2380 -381 -762 -700 -1404
-708 -1428 -37 -103 -39 -255 -7 -363 72 -236 269 -427 611 -591 253 -122 603
-228 961 -292 46 -9 95 -18 108 -20 14 -3 45 -8 70 -11 25 -3 57 -7 70 -10 14
-2 45 -7 70 -10 25 -3 64 -7 86 -10 22 -3 60 -7 85 -10 370 -44 1088 -54 1455
-20 273 25 371 37 515 61 14 2 45 7 70 10 37 5 156 29 400 80 114 23 384 110
532 170 428 173 682 401 755 675 21 84 21 226 -2 304 -9 33 -177 380 -372 770
-195 391 -733 1465 -1195 2389 l-840 1679 -76 77 c-59 59 -95 86 -152 113
-118 55 -229 73 -340 56z m1947 -4316 c-3 -2 -24 3 -48 11 -75 25 -372 96
-469 112 -14 3 -47 9 -75 14 -65 12 -99 18 -160 25 -27 3 -62 8 -77 11 -30 6
-69 11 -143 19 -27 3 -68 8 -90 10 -363 41 -1061 51 -1375 20 -19 -1 -71 -6
-115 -9 -80 -7 -143 -13 -200 -21 -16 -2 -57 -7 -90 -11 -33 -3 -69 -8 -79
-10 -11 -2 -56 -8 -100 -15 -168 -22 -547 -105 -665 -145 -24 -8 -45 -13 -48
-11 -3 3 1839 3690 1863 3729 3 4 426 -832 940 -1859 514 -1026 933 -1867 931
-1870z m-1617 -348 c113 -3 225 -8 250 -10 25 -2 82 -6 126 -10 45 -3 99 -8
120 -10 172 -20 238 -30 369 -51 169 -28 304 -56 415 -86 41 -11 82 -21 90
-23 29 -6 215 -67 245 -80 17 -7 74 -32 127 -55 169 -73 338 -199 338 -252 0
-41 -114 -138 -240 -205 -221 -117 -548 -217 -925 -283 -33 -5 -71 -12 -84
-15 -42 -8 -344 -44 -426 -51 -44 -3 -96 -8 -115 -9 -248 -23 -786 -23 -1090
0 -119 9 -227 20 -300 30 -14 2 -65 9 -115 15 -49 6 -126 18 -170 26 -44 7
-96 16 -115 19 -19 3 -51 10 -70 15 -19 5 -46 11 -60 14 -191 34 -493 133
-670 219 -135 66 -280 180 -280 220 0 45 98 131 236 208 196 109 567 223 924
284 52 9 106 18 120 21 50 8 347 43 425 50 44 3 98 7 120 10 22 2 137 6 255
10 118 3 216 7 217 8 1 1 19 1 40 0 21 -1 130 -5 243 -9z"/>
</g>
</svg>
